<svg xmlns="http://www.w3.org/2000/svg" viewBox="0 0 100 100">
  <rect width="100" height="100" rx="20" fill="#1e3a5f"/>
  <!-- Open book -->
  <path d="M50 30 C50 30 38 28 25 32 L25 72 C38 68 50 70 50 70 C50 70 62 68 75 72 L75 32 C62 28 50 30 50 30Z" fill="#f0e6d3" stroke="#d4a843" stroke-width="1.5"/>
  <!-- Book spine -->
  <line x1="50" y1="30" x2="50" y2="70" stroke="#d4a843" stroke-width="1.5"/>
  <!-- Calendar grid on right page (Hebrew: right = first page) -->
  <rect x="53" y="38" width="3" height="3" rx="0.5" fill="#d4a843" opacity="0.7"/>
  <rect x="58" y="38" width="3" height="3" rx="0.5" fill="#d4a843" opacity="0.7"/>
  <rect x="63" y="38" width="3" height="3" rx="0.5" fill="#d4a843" opacity="0.7"/>
  <rect x="68" y="38" width="3" height="3" rx="0.5" fill="#d4a843" opacity="0.7"/>
  <rect x="53" y="43" width="3" height="3" rx="0.5" fill="#d4a843" opacity="0.5"/>
  <rect x="58" y="43" width="3" height="3" rx="0.5" fill="#d4a843" opacity="0.5"/>
  <rect x="63" y="43" width="3" height="3" rx="0.5" fill="#d4a843" opacity="0.5"/>
  <rect x="68" y="43" width="3" height="3" rx="0.5" fill="#d4a843" opacity="0.5"/>
  <rect x="53" y="48" width="3" height="3" rx="0.5" fill="#d4a843" opacity="0.3"/>
  <rect x="58" y="48" width="3" height="3" rx="0.5" fill="#d4a843" opacity="0.3"/>
  <rect x="63" y="48" width="3" height="3" rx="0.5" fill="#d4a843" opacity="0.3"/>
  <rect x="68" y="48" width="3" height="3" rx="0.5" fill="#d4a843" opacity="0.3"/>
  <!-- Text lines on left page -->
  <line x1="30" y1="40" x2="46" y2="40" stroke="#d4a843" stroke-width="1.5" opacity="0.7"/>
  <line x1="30" y1="45" x2="46" y2="45" stroke="#d4a843" stroke-width="1.5" opacity="0.5"/>
  <line x1="30" y1="50" x2="46" y2="50" stroke="#d4a843" stroke-width="1.5" opacity="0.4"/>
  <line x1="30" y1="55" x2="42" y2="55" stroke="#d4a843" stroke-width="1.5" opacity="0.3"/>
</svg>
